<?xml version="1.0" encoding="utf-8"?>
<!-- Generator: Adobe Illustrator 24.2.1, SVG Export Plug-In . SVG Version: 6.00 Build 0)  -->
<svg version="1.1" id="レイヤー_1" xmlns="http://www.w3.org/2000/svg" xmlns:xlink="http://www.w3.org/1999/xlink" x="0px"
	 y="0px" viewBox="0 0 393.1 42.6" style="enable-background:new 0 0 393.1 42.6;" xml:space="preserve">
<style type="text/css">
	.st0{fill:#F9DB3A;}
	.st1{fill:#FFFFFF;}
	.st2{fill:#9C0A14;}
	.st3{fill:#EB8A48;}
	.st4{fill:#8EB94B;}
</style>
<g>
	<path class="st0" d="M100.2,21.9C93,29.2,76.7,33.7,66.2,34.5c-16.3,1.1-30.2-5.4-36.2-12.6C26.8,18.2,17.8,9.4,14.1,0H0
		c2.6,10,8.9,21.3,19.5,30.5C29.3,39,52,42.6,64.7,42.6c18.6,0,43.1,0,51.7-22.4c4.3-5.4,7.6-12.6,9.7-20.2H115
		C111.5,8.7,105.6,16.6,100.2,21.9z"/>
	<path class="st1" d="M66.2,34.5c10.5-0.7,26.8-5.3,34.1-12.6C105.6,16.6,111.5,8.7,115,0H87.5c0.6,0.3,1.2,0.7,1.9,1.2
		c2.3,1.7,3.9,3.4,4.9,6c1,2.6,1.3,5.9,0.6,8.4c0.1,4.8-4.3,6.5-7.6,7.8c-2.3,0.9-6.6,1.8-9,0.8c-3.7-1.5-6.1-4.4-6.8-6.7
		c-0.5-1.6-2.5-6.6-0.7-9.2c0.7-3.9,4.4-6.7,7.6-8c0.3-0.1,0.6-0.2,0.9-0.4h-18l1,2.9l0,5l-2.7,1.8c0,0,0,0,0,0
		c0.1,4.8-4.3,6.5-7.6,7.8c-2.3,0.9-6.6,1.8-9,0.8c-3.7-1.5-6.1-4.4-6.8-6.7c-0.4-1.3-1.7-4.6-1.4-7.3l-4.6-0.8L33.4,0H14.1
		c3.7,9.4,12.7,18.2,15.8,21.9C35.9,29.1,49.9,35.6,66.2,34.5z M62.5,16.6c2.5-1.5,3.8-0.6,5.9-0.4l2.9,4.4l2.6,3.1
		c-1.4-0.2-3,0.3-5.2,0.8c-1.7,0.4-3.8,0.6-5.2,1.7c-0.7,0.6-1.4,1.4-1.9,2.3l-3.1-2.2l-2-3.4l-0.7-1.2C57,20.5,59,17.8,62.5,16.6z"
		/>
	<path class="st2" d="M78.5,0.4c-3.3,1.3-7,4.1-7.6,8c-1.8,2.6,0.2,7.6,0.7,9.2c0.7,2.3,3.1,5.2,6.8,6.7c2.4,0.9,6.7,0.1,9-0.8
		c3.3-1.3,7.7-3,7.6-7.8c0.7-2.4,0.4-5.8-0.6-8.4c-1-2.6-2.6-4.3-4.9-6c-0.7-0.5-1.3-0.9-1.9-1.2h-8.1C79.1,0.1,78.8,0.3,78.5,0.4z
		 M86.6,23.2L79,20.4l-5.6-1l5-6l4.4-3.4l4.1,9.3L86.6,23.2z"/>
	<path class="st2" d="M52.6,11.4l-3.2-9L54.3,0H42.2l1.6,3.6l-0.2,3.8l-7.7-2.8l-1-0.2c-0.3,2.6,1,6,1.4,7.3
		c0.7,2.3,3.1,5.2,6.8,6.7c2.4,0.9,6.7,0.1,9-0.8c3.3-1.3,7.7-3,7.6-7.8c0,0,0,0,0,0l-0.7,0.5L52.6,11.4z"/>
	<path class="st0" d="M36.5,0h-3.1l-3.1,3.6l4.6,0.8C35,3.7,35.2,3,35.6,2.5C35.7,1.6,36.1,0.8,36.5,0z"/>
	<path class="st0" d="M43.6,7.4l0.2-3.8L42.2,0h-5.8c-0.4,0.8-0.7,1.6-0.9,2.5C35.2,3,35,3.7,34.9,4.4l1,0.2L43.6,7.4z"/>
	<polygon class="st0" points="78.4,13.4 73.3,19.4 79,20.4 86.6,23.2 86.8,19.4 82.8,10 	"/>
	<path class="st3" d="M58.6,26.4l3.1,2.2c0.5-0.9,1.1-1.7,1.9-2.3c1.4-1.2,3.5-1.4,5.2-1.7c2.2-0.5,3.8-1,5.2-0.8l-2.6-3.1l-2.9-4.4
		c-2.1-0.2-3.4-1-5.9,0.4c-3.5,1.2-5.5,3.9-6.6,5.2l0.7,1.2L58.6,26.4z"/>
	<path class="st4" d="M59,1.4c1,2.6,1.3,5.9,0.7,8.4L62.4,8l0-5l-1-2.9h-3C58.6,0.4,58.8,0.9,59,1.4z"/>
	<path class="st4" d="M59,1.4c-0.2-0.5-0.4-0.9-0.6-1.4h-4.1l-4.9,2.4l3.2,9l6.3-1.2l0.7-0.5C60.4,7.3,60,4,59,1.4z"/>
	<path class="st0" d="M233.2,21.9c-7.3,7.3-23.6,11.8-34.1,12.6c-16.3,1.1-30.2-5.4-36.2-12.6c-3.1-3.7-12.1-12.5-15.8-21.9H133
		c2.6,10,8.9,21.3,19.5,30.5c9.8,8.5,32.6,12.1,45.2,12.1c18.6,0,43.1,0,51.7-22.4c4.3-5.4,7.6-12.6,9.7-20.2H248
		C244.5,8.7,238.6,16.6,233.2,21.9z"/>
	<path class="st1" d="M199.2,34.5c10.5-0.7,26.8-5.3,34.1-12.6C238.6,16.6,244.5,8.7,248,0h-27.5c0.6,0.3,1.2,0.7,1.9,1.2
		c2.3,1.7,3.9,3.4,4.9,6c1,2.6,1.3,5.9,0.6,8.4c0.1,4.8-4.3,6.5-7.6,7.8c-2.3,0.9-6.6,1.8-9,0.8c-3.7-1.5-6.1-4.4-6.8-6.7
		c-0.5-1.6-2.5-6.6-0.7-9.2c0.7-3.9,4.4-6.7,7.6-8c0.3-0.1,0.6-0.2,0.9-0.4h-18l1,2.9l0,5l-2.7,1.8c0,0,0,0,0,0
		c0.1,4.8-4.3,6.5-7.6,7.8c-2.3,0.9-6.6,1.8-9,0.8c-3.7-1.5-6.1-4.4-6.8-6.7c-0.4-1.3-1.7-4.6-1.4-7.3l-4.6-0.8l3.1-3.6h-19.2
		c3.7,9.4,12.7,18.2,15.8,21.9C168.9,29.1,182.9,35.6,199.2,34.5z M195.5,16.6c2.5-1.5,3.8-0.6,5.9-0.4l2.9,4.4l2.6,3.1
		c-1.4-0.2-3,0.3-5.2,0.8c-1.7,0.4-3.8,0.6-5.2,1.7c-0.7,0.6-1.4,1.4-1.9,2.3l-3.1-2.2l-2-3.4l-0.7-1.2
		C190,20.5,192,17.8,195.5,16.6z"/>
	<path class="st2" d="M211.5,0.4c-3.3,1.3-7,4.1-7.6,8c-1.8,2.6,0.2,7.6,0.7,9.2c0.7,2.3,3.1,5.2,6.8,6.7c2.4,0.9,6.7,0.1,9-0.8
		c3.3-1.3,7.7-3,7.6-7.8c0.7-2.4,0.4-5.8-0.6-8.4c-1-2.6-2.6-4.3-4.9-6c-0.7-0.5-1.3-0.9-1.9-1.2h-8.1
		C212.1,0.1,211.8,0.3,211.5,0.4z M219.6,23.2l-7.7-2.8l-5.6-1l5-6l4.4-3.4l4.1,9.3L219.6,23.2z"/>
	<path class="st2" d="M185.6,11.4l-3.2-9l4.9-2.4h-12.1l1.6,3.6l-0.2,3.8l-7.7-2.8l-1-0.2c-0.3,2.6,1,6,1.4,7.3
		c0.7,2.3,3.1,5.2,6.8,6.7c2.4,0.9,6.7,0.1,9-0.8c3.3-1.3,7.7-3,7.6-7.8c0,0,0,0,0,0l-0.7,0.5L185.6,11.4z"/>
	<path class="st0" d="M169.5,0h-3.1l-3.1,3.6l4.6,0.8c0.1-0.7,0.3-1.4,0.7-1.9C168.7,1.6,169.1,0.8,169.5,0z"/>
	<path class="st0" d="M176.6,7.4l0.2-3.8L175.2,0h-5.8c-0.4,0.8-0.7,1.6-0.9,2.5c-0.4,0.6-0.6,1.2-0.7,1.9l1,0.2L176.6,7.4z"/>
	<polygon class="st0" points="211.4,13.4 206.3,19.4 212,20.4 219.6,23.2 219.8,19.4 215.8,10 	"/>
	<path class="st3" d="M191.6,26.4l3.1,2.2c0.5-0.9,1.1-1.7,1.9-2.3c1.4-1.2,3.5-1.4,5.2-1.7c2.2-0.5,3.8-1,5.2-0.8l-2.6-3.1
		l-2.9-4.4c-2.1-0.2-3.4-1-5.9,0.4c-3.5,1.2-5.5,3.9-6.6,5.2l0.7,1.2L191.6,26.4z"/>
	<path class="st4" d="M192,1.4c1,2.6,1.3,5.9,0.7,8.4l2.7-1.8l0-5l-1-2.9h-3C191.6,0.4,191.8,0.9,192,1.4z"/>
	<path class="st4" d="M192,1.4c-0.2-0.5-0.4-0.9-0.6-1.4h-4.1l-4.9,2.4l3.2,9l6.3-1.2l0.7-0.5C193.4,7.3,193,4,192,1.4z"/>
	<path class="st0" d="M367.2,21.9c-7.3,7.3-23.6,11.8-34.1,12.6c-16.3,1.1-30.2-5.4-36.2-12.6c-3.1-3.7-12.1-12.5-15.8-21.9H267
		c2.6,10,8.9,21.3,19.5,30.5c9.8,8.5,32.6,12.1,45.2,12.1c18.6,0,43.1,0,51.7-22.4c4.3-5.4,7.6-12.6,9.7-20.2H382
		C378.5,8.7,372.6,16.6,367.2,21.9z"/>
	<path class="st1" d="M333.2,34.5c10.5-0.7,26.8-5.3,34.1-12.6C372.6,16.6,378.5,8.7,382,0h-27.5c0.6,0.3,1.2,0.7,1.9,1.2
		c2.3,1.7,3.9,3.4,4.9,6c1,2.6,1.3,5.9,0.6,8.4c0.1,4.8-4.3,6.5-7.6,7.8c-2.3,0.9-6.6,1.8-9,0.8c-3.7-1.5-6.1-4.4-6.8-6.7
		c-0.5-1.6-2.5-6.6-0.7-9.2c0.7-3.9,4.4-6.7,7.6-8c0.3-0.1,0.6-0.2,0.9-0.4h-18l1,2.9l0,5l-2.7,1.8c0,0,0,0,0,0
		c0.1,4.8-4.3,6.5-7.6,7.8c-2.3,0.9-6.6,1.8-9,0.8c-3.7-1.5-6.1-4.4-6.8-6.7c-0.4-1.3-1.7-4.6-1.4-7.3l-4.6-0.8l3.1-3.6h-19.2
		c3.7,9.4,12.7,18.2,15.8,21.9C302.9,29.1,316.9,35.6,333.2,34.5z M329.5,16.6c2.5-1.5,3.8-0.6,5.9-0.4l2.9,4.4l2.6,3.1
		c-1.4-0.2-3,0.3-5.2,0.8c-1.7,0.4-3.8,0.6-5.2,1.7c-0.7,0.6-1.4,1.4-1.9,2.3l-3.1-2.2l-2-3.4l-0.7-1.2
		C324,20.5,326,17.8,329.5,16.6z"/>
	<path class="st2" d="M345.5,0.4c-3.3,1.3-7,4.1-7.6,8c-1.8,2.6,0.2,7.6,0.7,9.2c0.7,2.3,3.1,5.2,6.8,6.7c2.4,0.9,6.7,0.1,9-0.8
		c3.3-1.3,7.7-3,7.6-7.8c0.7-2.4,0.4-5.8-0.6-8.4c-1-2.6-2.6-4.3-4.9-6c-0.7-0.5-1.3-0.9-1.9-1.2h-8.1
		C346.1,0.1,345.8,0.3,345.5,0.4z M353.6,23.2l-7.7-2.8l-5.6-1l5-6l4.4-3.4l4.1,9.3L353.6,23.2z"/>
	<path class="st2" d="M319.6,11.4l-3.2-9l4.9-2.4h-12.1l1.6,3.6l-0.2,3.8l-7.7-2.8l-1-0.2c-0.3,2.6,1,6,1.4,7.3
		c0.7,2.3,3.1,5.2,6.8,6.7c2.4,0.9,6.7,0.1,9-0.8c3.3-1.3,7.7-3,7.6-7.8c0,0,0,0,0,0l-0.7,0.5L319.6,11.4z"/>
	<path class="st0" d="M303.5,0h-3.1l-3.1,3.6l4.6,0.8c0.1-0.7,0.3-1.4,0.7-1.9C302.7,1.6,303.1,0.8,303.5,0z"/>
	<path class="st0" d="M310.6,7.4l0.2-3.8L309.2,0h-5.8c-0.4,0.8-0.7,1.6-0.9,2.5c-0.4,0.6-0.6,1.2-0.7,1.9l1,0.2L310.6,7.4z"/>
	<polygon class="st0" points="345.4,13.4 340.3,19.4 346,20.4 353.6,23.2 353.8,19.4 349.8,10 	"/>
	<path class="st3" d="M325.6,26.4l3.1,2.2c0.5-0.9,1.1-1.7,1.9-2.3c1.4-1.2,3.5-1.4,5.2-1.7c2.2-0.5,3.8-1,5.2-0.8l-2.6-3.1
		l-2.9-4.4c-2.1-0.2-3.4-1-5.9,0.4c-3.5,1.2-5.5,3.9-6.6,5.2l0.7,1.2L325.6,26.4z"/>
	<path class="st4" d="M326,1.4c1,2.6,1.3,5.9,0.7,8.4l2.7-1.8l0-5l-1-2.9h-3C325.6,0.4,325.8,0.9,326,1.4z"/>
	<path class="st4" d="M326,1.4c-0.2-0.5-0.4-0.9-0.6-1.4h-4.1l-4.9,2.4l3.2,9l6.3-1.2l0.7-0.5C327.4,7.3,327,4,326,1.4z"/>
</g>
</svg>
