<?xml version="1.0" encoding="utf-8"?>
<!-- Generator: Adobe Illustrator 24.2.1, SVG Export Plug-In . SVG Version: 6.00 Build 0)  -->
<svg version="1.1" id="レイヤー_1" xmlns="http://www.w3.org/2000/svg" xmlns:xlink="http://www.w3.org/1999/xlink" x="0px"
	 y="0px" viewBox="0 0 35 118" style="enable-background:new 0 0 35 118;" xml:space="preserve">
<style type="text/css">
	.st0{fill:#8EB94B;}
</style>
<path class="st0" d="M34.1,29.9c1.6-16.9,0.6-22.5,0.6-27.6c0-0.9-3-2.4-5-1.3c-1.7,1.8,2.3,13-2,16.6c-1.4,1.2-1.7,0.7-5.5,0
	c-1.7,0.4-1.4-16-3.5-17.2c-1.6-1-3.5,0-5,0.6c-1,1.1-0.6,3.9-0.2,6.9l-0.3,8.3c-6.1,9.7-5.6-9-6.4-9.6C2.5,3.8,1,5.7,0,8.5
	l2.5,21.4l6,7.3l9,2.4v37.1l-2.6,39.4l5.2,1.9l6.2-1.9c-0.5-15.6-4.3-74.9-3-76.5C24.6,38.1,33.2,39.6,34.1,29.9z"/>
</svg>
