<?xml version="1.0" encoding="utf-8"?>
<!-- Generator: Adobe Illustrator 24.2.1, SVG Export Plug-In . SVG Version: 6.00 Build 0)  -->
<svg version="1.1" id="レイヤー_1" xmlns="http://www.w3.org/2000/svg" xmlns:xlink="http://www.w3.org/1999/xlink" x="0px"
	 y="0px" viewBox="0 0 26 26" style="enable-background:new 0 0 26 26;" xml:space="preserve">
<style type="text/css">
	.st0{fill:#4A7348;}
</style>
<path class="st0" d="M17.5,11.7c1.1,0,2-0.9,2-1.9c0-1.1-0.9-1.9-2-1.9c-1.1,0-1.9,0.9-1.9,1.9C15.6,10.8,16.5,11.7,17.5,11.7z"/>
<path class="st0" d="M8.4,11.7c1.1,0,1.9-0.9,1.9-1.9c0-1.1-0.9-1.9-1.9-1.9S6.5,8.7,6.5,9.8C6.5,10.8,7.4,11.7,8.4,11.7z"/>
<path class="st0" d="M13,0C5.8,0,0,5.8,0,13s5.8,13,13,13c7.2,0,13-5.8,13-13S20.2,0,13,0z M13,23.4C7.3,23.4,2.6,18.7,2.6,13
	S7.3,2.6,13,2.6S23.4,7.3,23.4,13S18.7,23.4,13,23.4z M13,20.1c3,0,5.6-1.9,6.7-4.5h-2.2c-0.9,1.5-2.6,2.6-4.5,2.6s-3.6-1.1-4.5-2.6
	H6.3C7.4,18.3,10,20.1,13,20.1z"/>
</svg>
