<?xml version="1.0" encoding="utf-8"?>
<!-- Generator: Adobe Illustrator 24.2.1, SVG Export Plug-In . SVG Version: 6.00 Build 0)  -->
<svg version="1.1" id="レイヤー_1" xmlns="http://www.w3.org/2000/svg" xmlns:xlink="http://www.w3.org/1999/xlink" x="0px"
	 y="0px" viewBox="0 0 30.2 26" style="enable-background:new 0 0 30.2 26;" xml:space="preserve">
<style type="text/css">
	.st0{fill:#EB8A48;}
</style>
<path class="st0" d="M22.2,9.6l-6-9C16,0.2,15.5,0,15.1,0S14.2,0.2,14,0.6l-6,9H1.4C0.6,9.6,0,10.2,0,10.9c0,0.1,0,0.2,0.1,0.4
	L3.5,24c0.3,1.2,1.4,2,2.6,2H24c1.3,0,2.3-0.8,2.6-2l3.5-12.7v-0.4c0-0.8-0.6-1.4-1.4-1.4L22.2,9.6L22.2,9.6z M11,9.6l4.1-6l4.1,6
	H11z M15.1,20.5c-1.5,0-2.7-1.2-2.7-2.7s1.2-2.7,2.7-2.7s2.7,1.2,2.7,2.7C17.8,19.3,16.6,20.5,15.1,20.5z"/>
</svg>
