<svg xmlns="http://www.w3.org/2000/svg" viewBox="0 0 25.36 19">
  <defs>
    <style>
      .a {
        fill: #eb8a48;
      }
    </style>
  </defs>
  <g>
    <path class="a" d="M15.51,13a5.85,5.85,0,0,1,8.61-5.16C23.36.82,18.28,0,12.11,0,5.42,0,0,1,0,9.74,0,15.51,5.42,19,12.11,19a16.47,16.47,0,0,0,6.06-1.1A5.85,5.85,0,0,1,15.51,13ZM2.88,5l1.3,1a6.09,6.09,0,0,0-.55,4.49l-1.56.43A7.6,7.6,0,0,1,2.88,5Zm1.3,9.79A12.28,12.28,0,0,1,2.87,13l1.38-.83a10.83,10.83,0,0,0,1.07,1.51Zm8.05-6L10.38,6.52l-4.56.27,2.71-2-2.71-2,4.56.27L12.23.79l1.85,2.27,4.57-.27-2.72,2,2.72,2-4.57-.27Z"/>
    <path class="a" d="M12.35,3.8c-1,0-1.9.43-1.9,1s.85,1,1.9,1,1.9-.43,1.9-1S13.4,3.8,12.35,3.8Z"/>
    <polygon class="a" points="23.91 12 22.36 12 22.36 9 20.36 9 20.36 12 17.36 12 17.36 14 20.36 14 20.36 16.74 20.36 17 22.36 17 22.36 14.95 22.36 14 23.04 14 25.36 14 25.36 12 23.91 12"/>
  </g>
</svg>
