<?xml version="1.0" encoding="utf-8"?>
<!-- Generator: Adobe Illustrator 24.2.1, SVG Export Plug-In . SVG Version: 6.00 Build 0)  -->
<svg version="1.1" id="レイヤー_1" xmlns="http://www.w3.org/2000/svg" xmlns:xlink="http://www.w3.org/1999/xlink" x="0px"
	 y="0px" viewBox="0 0 25.4 19" style="enable-background:new 0 0 25.4 19;" xml:space="preserve">
<style type="text/css">
	.st0{fill:#4A7348;}
</style>
<g>
	<path class="st0" d="M15.5,13c0-3.2,2.6-5.9,5.8-5.9c1,0,1.9,0.2,2.8,0.7c-0.8-7-5.8-7.8-12-7.8C5.4,0,0,1,0,9.7
		C0,15.5,5.4,19,12.1,19c2.1,0,4.1-0.4,6.1-1.1C16.5,16.8,15.5,15,15.5,13z M2.9,5l1.3,1c-0.8,1.4-0.9,3-0.5,4.5l-1.6,0.4
		C1.5,8.9,1.8,6.8,2.9,5z M4.2,14.8c-0.5-0.6-0.9-1.2-1.3-1.8l1.4-0.8c0.3,0.5,0.7,1,1.1,1.5L4.2,14.8z M12.2,8.8l-1.9-2.3L5.8,6.8
		l2.7-2l-2.7-2l4.6,0.3l1.8-2.3l1.9,2.3l4.6-0.3l-2.7,2l2.7,2l-4.6-0.3L12.2,8.8z"/>
	<path class="st0" d="M12.4,3.8c-1,0-1.9,0.4-1.9,1s0.9,1,1.9,1s1.9-0.4,1.9-1S13.4,3.8,12.4,3.8z"/>
	<polygon class="st0" points="23.9,12 22.4,12 22.4,9 20.4,9 20.4,12 17.4,12 17.4,14 20.4,14 20.4,16.7 20.4,17 22.4,17 22.4,14.9 
		22.4,14 23,14 25.4,14 25.4,12 	"/>
</g>
</svg>
