<?xml version="1.0" encoding="utf-8"?>
<!-- Generator: Adobe Illustrator 24.2.1, SVG Export Plug-In . SVG Version: 6.00 Build 0)  -->
<svg version="1.1" id="レイヤー_1" xmlns="http://www.w3.org/2000/svg" xmlns:xlink="http://www.w3.org/1999/xlink" x="0px"
	 y="0px" viewBox="0 0 393.2 50.5" style="enable-background:new 0 0 393.2 50.5;" xml:space="preserve">
<style type="text/css">
	.st0{fill:#F9DB3A;}
	.st1{fill:#FFFFFF;}
	.st2{fill:#9C0A14;}
	.st3{fill:#EB8A48;}
	.st4{fill:#8EB94B;}
</style>
<g>
	<path class="st0" d="M28.6,30.5C39.3,19.9,44.2,9,71.5,14.2c11.3,2.1,20,5.7,27.9,13.6c6.1,6.1,11.4,14.5,14,22.8h12.8
		c-2-7.5-5.7-14.4-10.6-21.7C96.2,0.4,82.5,0,63.9,0C45.6,0,22.3,12.2,11.7,28.9C4.9,33.1,1.6,41.8,0,50.5h15
		C18.2,42.8,23.3,35.8,28.6,30.5z"/>
	<path class="st1" d="M71.5,14.2C44.2,9,39.3,19.9,28.6,30.5c-5.3,5.3-10.4,12.3-13.6,20h40c-0.5-1.6-2.5-6.6-0.7-9.2
		c0.6-3.1,3.1-5.6,5.7-7.1l0,0L57,28.5l7.6-5.7l4,4.1l3.2,5.5l-0.7,0.5c0.5,0.3,1.1,0.7,1.8,1.2c2.3,1.7,3.9,3.4,4.9,6
		c1,2.6,1.3,5.9,0.6,8.4c0,0.7-0.1,1.3-0.2,1.9h18.1c0-0.3,0-0.6-0.1-0.9c-0.2-1-0.5-1.9-1.1-2.8l3.4-1.6h3.9h1.4
		c0.4,1.1,1.2,3,1.4,5.3h8.2c-2.6-8.3-7.9-16.6-14-22.8C91.5,19.9,82.8,16.4,71.5,14.2z M41.3,44.4l-3.6,2l-6.4,0.7l-2.5-9.2
		l5.3-2.2l6.4-1l1.2,4.6L41.3,44.4z M95.2,38.2l-3.8,4.2L88.9,35l-0.5-5.5L98.5,31l3.1,2.2L95.2,38.2z"/>
	<path class="st2" d="M78.4,48.6c0.7-2.4,0.4-5.8-0.6-8.4c-1-2.6-2.6-4.3-4.9-6c-0.6-0.5-1.2-0.8-1.8-1.2L68,35.4l-4.8,1.5L60,34.2
		c-2.7,1.5-5.2,4-5.7,7.1c-1.8,2.6,0.2,7.6,0.7,9.2h23.1C78.3,49.9,78.4,49.3,78.4,48.6z"/>
	<polygon class="st0" points="88.4,29.5 88.9,35 91.3,42.4 95.2,38.2 101.6,33.2 98.5,31 	"/>
	<path class="st3" d="M103.8,45.2h-1.4h-3.9l-3.4,1.6c0.6,0.9,0.9,1.8,1.1,2.8c0.1,0.3,0.1,0.6,0.1,0.9h9
		C105,48.2,104.2,46.3,103.8,45.2z"/>
	<path class="st4" d="M71.1,33.1l0.7-0.5L68.6,27l-4-4.1L57,28.5l3.1,5.7l0,0c0.6-0.4,1.3-0.6,1.9-0.9
		C64.9,32.2,66.8,30.6,71.1,33.1z"/>
	<path class="st4" d="M68,35.4l3.1-2.3c-4.3-2.5-6.2-0.8-9.2,0.3c-0.6,0.2-1.3,0.5-1.9,0.9l3.2,2.7L68,35.4z"/>
	<polygon class="st4" points="34.1,35.7 28.8,37.9 31.2,47.1 37.6,46.4 41.3,44.4 41.6,39.4 40.4,34.8 	"/>
	<path class="st0" d="M161.6,30.5c10.6-10.6,15.6-21.5,42.9-16.3c11.3,2.1,20,5.7,27.9,13.6c6.1,6.1,11.4,14.5,14,22.8h12.8
		c-2-7.5-5.7-14.4-10.6-21.7C229.2,0.4,215.5,0,196.9,0c-18.3,0-41.6,12.2-52.1,28.9c-6.8,4.3-10.1,13-11.7,21.7h15
		C151.2,42.8,156.3,35.8,161.6,30.5z"/>
	<path class="st1" d="M204.5,14.2c-27.3-5.2-32.3,5.6-42.9,16.3c-5.3,5.3-10.4,12.3-13.6,20h40c-0.5-1.6-2.5-6.6-0.7-9.2
		c0.6-3.1,3.1-5.6,5.7-7.1l0,0l-3.1-5.7l7.6-5.7l4,4.1l3.2,5.5l-0.7,0.5c0.5,0.3,1.1,0.7,1.8,1.2c2.3,1.7,3.9,3.4,4.9,6
		c1,2.6,1.3,5.9,0.6,8.4c0,0.7-0.1,1.3-0.2,1.9h18.1c0-0.3,0-0.6-0.1-0.9c-0.2-1-0.5-1.9-1.1-2.8l3.4-1.6h3.9h1.4
		c0.4,1.1,1.2,3,1.4,5.3h8.2c-2.6-8.3-7.9-16.6-14-22.8C224.5,19.9,215.8,16.4,204.5,14.2z M174.3,44.4l-3.6,2l-6.4,0.7l-2.5-9.2
		l5.3-2.2l6.4-1l1.2,4.6L174.3,44.4z M228.2,38.2l-3.8,4.2l-2.4-7.5l-0.5-5.5l10.1,1.5l3.1,2.2L228.2,38.2z"/>
	<path class="st2" d="M211.4,48.6c0.7-2.4,0.4-5.8-0.6-8.4c-1-2.6-2.6-4.3-4.9-6c-0.6-0.5-1.2-0.8-1.8-1.2l-3.1,2.3l-4.8,1.5
		l-3.2-2.7c-2.7,1.5-5.2,4-5.7,7.1c-1.8,2.6,0.2,7.6,0.7,9.2h23.1C211.3,49.9,211.4,49.3,211.4,48.6z"/>
	<polygon class="st0" points="221.4,29.5 221.9,35 224.3,42.4 228.2,38.2 234.6,33.2 231.5,31 	"/>
	<path class="st3" d="M236.8,45.2h-1.4h-3.9l-3.4,1.6c0.6,0.9,0.9,1.8,1.1,2.8c0.1,0.3,0.1,0.6,0.1,0.9h9
		C238,48.2,237.2,46.3,236.8,45.2z"/>
	<path class="st4" d="M204.1,33.1l0.7-0.5l-3.2-5.5l-4-4.1l-7.6,5.7l3.1,5.7l0,0c0.6-0.4,1.3-0.6,1.9-0.9
		C197.9,32.2,199.8,30.6,204.1,33.1z"/>
	<path class="st4" d="M201,35.4l3.1-2.3c-4.3-2.5-6.2-0.8-9.2,0.3c-0.6,0.2-1.3,0.5-1.9,0.9l3.2,2.7L201,35.4z"/>
	<polygon class="st4" points="167.1,35.7 161.8,37.9 164.2,47.1 170.6,46.4 174.3,44.4 174.6,39.4 173.4,34.8 	"/>
	<path class="st0" d="M295.6,30.5c10.6-10.6,15.6-21.5,42.9-16.3c11.3,2.1,20,5.7,27.9,13.6c6.1,6.1,11.4,14.5,14,22.8h12.8
		c-2-7.5-5.7-14.4-10.6-21.7C363.2,0.4,349.5,0,330.9,0c-18.3,0-41.6,12.2-52.1,28.9c-6.8,4.3-10.1,13-11.7,21.7h15
		C285.2,42.8,290.3,35.8,295.6,30.5z"/>
	<path class="st1" d="M338.5,14.2c-27.3-5.2-32.3,5.6-42.9,16.3c-5.3,5.3-10.4,12.3-13.6,20h40c-0.5-1.6-2.5-6.6-0.7-9.2
		c0.6-3.1,3.1-5.6,5.7-7.1l0,0l-3.1-5.7l7.6-5.7l4,4.1l3.2,5.5l-0.7,0.5c0.5,0.3,1.1,0.7,1.8,1.2c2.3,1.7,3.9,3.4,4.9,6
		c1,2.6,1.3,5.9,0.6,8.4c0,0.7-0.1,1.3-0.2,1.9h18.1c0-0.3,0-0.6-0.1-0.9c-0.2-1-0.5-1.9-1.1-2.8l3.4-1.6h3.9h1.4
		c0.4,1.1,1.2,3,1.4,5.3h8.2c-2.6-8.3-7.9-16.6-14-22.8C358.5,19.9,349.8,16.4,338.5,14.2z M308.3,44.4l-3.6,2l-6.4,0.7l-2.5-9.2
		l5.3-2.2l6.4-1l1.2,4.6L308.3,44.4z M362.2,38.2l-3.8,4.2l-2.4-7.5l-0.5-5.5l10.1,1.5l3.1,2.2L362.2,38.2z"/>
	<path class="st2" d="M345.4,48.6c0.7-2.4,0.4-5.8-0.6-8.4c-1-2.6-2.6-4.3-4.9-6c-0.6-0.5-1.2-0.8-1.8-1.2l-3.1,2.3l-4.8,1.5
		l-3.2-2.7c-2.7,1.5-5.2,4-5.7,7.1c-1.8,2.6,0.2,7.6,0.7,9.2h23.1C345.3,49.9,345.4,49.3,345.4,48.6z"/>
	<polygon class="st0" points="355.4,29.5 355.9,35 358.3,42.4 362.2,38.2 368.6,33.2 365.5,31 	"/>
	<path class="st3" d="M370.8,45.2h-1.4h-3.9l-3.4,1.6c0.6,0.9,0.9,1.8,1.1,2.8c0.1,0.3,0.1,0.6,0.1,0.9h9
		C372,48.2,371.2,46.3,370.8,45.2z"/>
	<path class="st4" d="M338.1,33.1l0.7-0.5l-3.2-5.5l-4-4.1l-7.6,5.7l3.1,5.7l0,0c0.6-0.4,1.3-0.6,1.9-0.9
		C331.9,32.2,333.8,30.6,338.1,33.1z"/>
	<path class="st4" d="M335,35.4l3.1-2.3c-4.3-2.5-6.2-0.8-9.2,0.3c-0.6,0.2-1.3,0.5-1.9,0.9l3.2,2.7L335,35.4z"/>
	<polygon class="st4" points="301.1,35.7 295.8,37.9 298.2,47.1 304.6,46.4 308.3,44.4 308.6,39.4 307.4,34.8 	"/>
</g>
</svg>
