<?xml version="1.0" encoding="utf-8"?>
<!-- Generator: Adobe Illustrator 24.2.1, SVG Export Plug-In . SVG Version: 6.00 Build 0)  -->
<svg version="1.1" id="レイヤー_1" xmlns="http://www.w3.org/2000/svg" xmlns:xlink="http://www.w3.org/1999/xlink" x="0px"
	 y="0px" viewBox="0 0 26.8 26" style="enable-background:new 0 0 26.8 26;" xml:space="preserve">
<style type="text/css">
	.st0{fill:#EB8A48;}
</style>
<path class="st0" d="M7.5,14.6l4-4.1l-9.8-10c-2.2,2.2-2.2,5.9,0,8.1L7.5,14.6L7.5,14.6z M17,12c2.1,1,5.2,0.3,7.4-2
	c2.7-2.7,3.2-6.7,1.1-8.8c-2-2.1-5.9-1.6-8.6,1.2C14.7,4.7,14,7.8,15,10L1.3,24l2,2l9.7-9.8l9.6,9.9l2-2L15,14.2L17,12L17,12z"/>
</svg>
