<?xml version="1.0" encoding="utf-8"?>
<!-- Generator: Adobe Illustrator 24.2.1, SVG Export Plug-In . SVG Version: 6.00 Build 0)  -->
<svg version="1.1" id="レイヤー_1" xmlns="http://www.w3.org/2000/svg" xmlns:xlink="http://www.w3.org/1999/xlink" x="0px"
	 y="0px" viewBox="0 0 130.2 127.1" style="enable-background:new 0 0 130.2 127.1;" xml:space="preserve">
<style type="text/css">
	.st0{fill:#F9DB3A;}
	.st1{fill:#8EB94B;}
</style>
<g>
	<path class="st0" d="M23.6,99.2c6.2-9.3,14.7-22.2,21.9-25.4c0.7-0.4,1.5-0.6,2.3-0.9c-0.2-0.1-0.3-0.3-0.5-0.4
		c-4.9-4.3-9.2-10.8-10.4-16.7c-5.4-10,2.1-18.7,7.8-25.3C48.5,26,56.8,19,62.9,18c9.4-1.3,17.8,1.9,21.6,5.8
		c0.4,0.4,0.9,0.8,1.5,1.4c3.7,3.5,10.9,10.4,9.9,16.9c2.7,8.9,0,21-5.6,27.5c-2,2.3-3.9,4.4-6.1,6.1c4.3,2.5,8.3,5.2,8.8,6.5
		c0.3,0.8,1.5,1.9,2.9,3.4c3,3,7.4,7.5,9.1,13.6c1,3.6,3.8,9.4,6.8,15.3c2.4-2.7,4.4-5.9,5.9-9.8c8-10,12.5-25.8,12.5-39.6
		s-4.5-24.5-12.5-36.2C98.4,0.4,84.6,0,66,0C47.8,0,24.5,12.2,13.9,28.9C0.1,37.5,0.9,64.1,0.1,72.4c-0.9,10.3,4.3,25.7,16.3,38.3
		c1-2.1,2-4,3.1-5.5C20.7,103.6,22.1,101.5,23.6,99.2z"/>
	<path class="st1" d="M20.8,115c9.8,8.6,32.5,12.1,45.2,12.1c15.3,0,34.7,0,45.8-12.6c-3.1-5.9-5.8-11.8-6.8-15.3
		c-1.7-6.1-6.1-10.6-9.1-13.6c-1.4-1.5-2.6-2.6-2.9-3.4c-0.5-1.3-4.5-4-8.8-6.5c2.2-1.7,4.1-3.8,6.1-6.1c5.6-6.5,8.3-18.6,5.6-27.5
		c1-6.5-6.2-13.4-9.9-16.9c-0.6-0.6-1.1-1-1.5-1.4c-3.8-3.9-12.2-7.1-21.6-5.8c-6.1,1-14.4,8-18.2,12.5c-5.7,6.6-13.2,15.3-7.8,25.3
		c1.2,5.9,5.5,12.4,10.4,16.7c0.2,0.1,0.3,0.3,0.5,0.4c-0.8,0.3-1.6,0.5-2.3,0.9C38.3,77,29.8,89.9,23.6,99.2
		c-1.5,2.3-2.9,4.4-4.1,6c-1.1,1.6-2.2,3.5-3.1,5.5C17.8,112.2,19.2,113.6,20.8,115z"/>
</g>
</svg>
