<?xml version="1.0" encoding="utf-8"?>
<!-- Generator: Adobe Illustrator 24.2.1, SVG Export Plug-In . SVG Version: 6.00 Build 0)  -->
<svg version="1.1" id="レイヤー_1" xmlns="http://www.w3.org/2000/svg" xmlns:xlink="http://www.w3.org/1999/xlink" x="0px"
	 y="0px" viewBox="0 0 130.2 127.1" style="enable-background:new 0 0 130.2 127.1;" xml:space="preserve">
<style type="text/css">
	.st0{fill:#F9DB3A;}
	.st1{fill:#FFFFFF;}
	.st2{fill:#9C0A14;}
	.st3{fill:#EB8A48;}
	.st4{fill:#8EB94B;}
</style>
<path class="st0" d="M130.2,65.1c0,13.8-4.5,29.6-12.5,39.6c-8.6,22.4-33.1,22.4-51.7,22.4c-12.7,0-35.4-3.5-45.2-12.1
	C5.6,101.8-0.9,83.9,0.1,72.4c0.8-8.3,0-34.9,13.8-43.5C24.5,12.2,47.8,0,66,0c18.6,0,32.4,0.4,51.7,28.9
	C125.7,40.6,130.2,51.3,130.2,65.1z"/>
<path class="st1" d="M101.6,27.8c7.9,7.9,14.4,19.5,15.5,29.8c7.9,17.8-4.9,38.2-15.5,48.9c-7.3,7.3-23.6,11.8-34.1,12.6
	c-16.3,1.1-30.2-5.4-36.2-12.6c-4.3-5.2-20-20-17-32.8c-3.5-15.6,6.1-32.7,16.5-43.2C41.4,19.9,46.4,9,73.7,14.2
	C85,16.4,93.7,19.9,101.6,27.8z"/>
<path class="st2" d="M79.9,40.2c1,2.6,1.3,5.9,0.6,8.4c0.1,4.8-4.3,6.5-7.6,7.8c-2.3,0.9-6.6,1.8-9,0.8c-3.7-1.5-6.1-4.4-6.8-6.7
	c-0.5-1.6-2.5-6.6-0.7-9.2c0.7-3.9,4.4-6.7,7.6-8c3.3-1.3,5.4-3.2,10.9,0.9C77.3,35.9,78.9,37.6,79.9,40.2z"/>
<path class="st2" d="M106.6,59.2c1,2.6,1.3,5.9,0.6,8.4c0.1,4.8-4.3,6.5-7.6,7.8c-2.3,0.9-6.6,1.8-9,0.8c-3.7-1.5-6.1-4.4-6.8-6.7
	c-0.5-1.6-2.5-6.6-0.7-9.2c0.7-3.9,4.4-6.7,7.6-8c3.3-1.3,5.4-3.2,10.9,0.9C104,54.8,105.6,56.6,106.6,59.2z"/>
<path class="st2" d="M95.6,91.8c1,2.6,1.3,5.9,0.6,8.4c0.1,4.8-4.3,6.5-7.6,7.8c-2.3,0.9-6.6,1.8-9,0.8c-3.7-1.5-6.1-4.4-6.8-6.7
	c-0.5-1.6-2.5-6.6-0.7-9.2c0.7-3.9,4.4-6.7,7.6-8c3.3-1.3,5.4-3.2,10.9,0.9C93,87.5,94.6,89.2,95.6,91.8z"/>
<path class="st2" d="M46.3,60.1c1,2.6,1.3,5.9,0.6,8.4c0.1,4.8-4.3,6.5-7.6,7.8c-2.3,0.9-6.6,1.8-9,0.8c-3.7-1.5-6.1-4.4-6.8-6.7
	c-0.5-1.6-2.5-6.6-0.7-9.2c0.7-3.9,4.4-6.7,7.6-8c3.3-1.3,5.4-3.2,10.9,0.9C43.7,55.8,45.3,57.5,46.3,60.1z"/>
<path class="st2" d="M60.4,85.9c1,2.6,1.3,5.9,0.6,8.4c0.1,4.8-4.3,6.5-7.6,7.8c-2.3,0.9-6.6,1.8-9,0.8c-3.7-1.5-6.1-4.4-6.8-6.7
	c-0.5-1.6-2.5-6.6-0.7-9.2c0.7-3.9,4.4-6.7,7.6-8c3.3-1.3,5.4-3.2,10.9,0.9C57.8,81.6,59.3,83.3,60.4,85.9z"/>
<path class="st0" d="M70,60.8l4.7,3l-7.4,7L63.6,72v-8.2l-1-5.6L70,60.8z"/>
<path class="st0" d="M36.7,82.2l4.4-3.4l4.1,9.3L44.9,92l-7.7-2.8l-5.6-1L36.7,82.2z"/>
<path class="st0" d="M79.7,98l4.4-3.4l4.1,9.3l-0.2,3.8l-7.7-2.8l-5.6-1L79.7,98z"/>
<path class="st0" d="M91.1,35l-0.5-5.5l10.1,1.5l3.1,2.2l-6.5,5l-3.8,4.2L91.1,35z"/>
<path class="st3" d="M106,45.2h-1.4h-3.9l-3.4,1.6c0.6,0.9,0.9,1.8,1.1,2.8c0.3,1.8-0.6,3.7-1.1,5.4c-0.7,2.1-1.1,3.8-1.9,4.9l4-0.7
	l5.3-0.3c1.2-1.7,2.6-2.4,2.6-5.4C107.9,49.9,106.6,46.8,106,45.2z"/>
<path class="st3" d="M48.1,55.9l-0.7,1.2l-2,3.4l-0.3,3.8c1.1,0,2.1,0.1,3,0.4c1.7,0.6,2.9,2.4,4.1,3.6c1.5,1.6,2.7,2.8,3.3,4.1
	l1.4-3.8l2.3-4.7c-0.9-1.9-0.8-3.5-3.4-4.9C53.1,56.6,49.7,56.2,48.1,55.9z"/>
<path class="st3" d="M57.3,106.4l0.7,1.2l2,3.4l3.1,2.2c0.5-0.9,1.1-1.7,1.9-2.3c1.4-1.2,3.5-1.4,5.2-1.7c2.2-0.5,3.8-1,5.2-0.8
	l-2.6-3.1l-2.9-4.4c-2.1-0.2-3.4-1-5.9,0.4C60.3,102.4,58.3,105.1,57.3,106.4z"/>
<path class="st3" d="M75.9,75.9l1.2,0.7l3.4,2l3.8,0.3c0-1.1,0.1-2.1,0.4-3c0.6-1.7,2.4-2.9,3.6-4.1c1.6-1.5,2.8-2.7,4.1-3.3
	l-3.8-1.4l-4.7-2.3c-1.9,0.9-3.5,0.8-4.9,3.4C76.5,70.9,76.1,74.2,75.9,75.9z"/>
<path class="st4" d="M31.7,63.3h9.5l0.7,5.7l-0.7,6.4h-4.8l-4.8-1.7l-1-4L31.7,63.3z"/>
<path class="st4" d="M59.1,28.5l7.6-5.7l4,4.1l3.2,5.5l-3.8,2.8l-4.8,1.5l-3.2-2.7L59.1,28.5z"/>
<path class="st4" d="M89.5,74.4l2.6-9.2l5.7,0.8l6,2.4l-1.3,4.6l-2.9,4.1L95.4,77L89.5,74.4z"/>
<path class="st4" d="M33.4,47.1l-2.5-9.2l5.3-2.2l6.4-1l1.2,4.6l-0.4,5l-3.6,2L33.4,47.1z"/>
<path class="st4" d="M53.9,96l-3.2-9l5.1-2.6l6.3-1.4l1.6,4.5l0,5l-3.5,2.2L53.9,96z"/>
</svg>
